<!--?xml version="1.0" encoding="UTF-8" standalone="no"?-->
<svg viewport-fill="#268d9e" xmlns:dc="http://purl.org/dc/elements/1.1/" xmlns:cc="http://creativecommons.org/ns#" xmlns:rdf="http://www.w3.org/1999/02/22-rdf-syntax-ns#" xmlns:svg="http://www.w3.org/2000/svg" xmlns="http://www.w3.org/2000/svg" xmlns:xlink="http://www.w3.org/1999/xlink" id="svg6" viewBox="0 0 1024 768" height="768px" width="1024px" version="1.1">
  
  <defs id="defs10"></defs>
  <style><![CDATA[   #title path, #tagline path{ fill: #c3d6ca !important; } #icon *{ fill: #c3d6ca !important; } ]]> </style><g id="logo-group"><rect x="0" y="0" width="1024" height="768" style="fill: #268d9e" />
    <g id="icon" transform="translate(0 255.26538461538456) "><svg x="433.25" y="0" width="157.5" height="157.5" viewBox="0 0 100 100"><g display="none"><rect x="-483.066" y="-377.496" display="inline" fill="#c3d6ca" stroke="#c3d6ca" stroke-width="4" stroke-miterlimit="10" width="1220.125" height="751.558"></rect></g><g><path fill="none" d="M36.116,82.885c-1.154,1.154-1.158,3.028-0.009,4.177l0.302,0.302c0.548,0.55,1.257,0.86,2.076,0.848   c0.793-0.003,1.536-0.311,2.091-0.866l6.086-6.086l-4.46-4.46L36.116,82.885z"></path><path fill="none" d="M34.905,69.503l-7.93,7.93l-3.432,3.431c-1.148,1.149-1.148,3.017,0,4.165l0.299,0.299   c1.149,1.149,3.017,1.147,4.165,0l11.362-11.362L34.905,69.503z"></path><path fill="none" d="M68.937,59.798c-0.072-0.318-0.233-0.61-0.464-0.841l-6.031-6.031c-0.127-0.127-0.35-0.111-0.443,0.043   c-0.786,1.298-0.627,3.009,0.469,4.144l3.784,3.784l-0.004,0.004c0.073,0.073,0.278,0.38,0.314,0.456l0.057,0.125l-2.098,1.977   l-0.415-0.416L47.924,47.231c-0.523-0.524-1.376-0.524-1.899,0l-0.181,0.181c-0.524,0.525-0.524,1.375,0,1.9l7.302,7.303   l-1.035,1.208l-1.21,1.21l-0.087-0.087L40.035,48.164c-0.261-0.262-0.605-0.393-0.95-0.393s-0.688,0.131-0.95,0.393l-0.181,0.181   c-0.525,0.525-0.525,1.375,0,1.9l10.867,10.868l-2.331,2.331l-7.969-7.97c-0.261-0.262-0.605-0.393-0.949-0.393   c-0.345,0-0.689,0.131-0.951,0.393l-0.181,0.181c-0.525,0.525-0.525,1.375,0,1.9l7.969,7.969l-2.331,2.331l-0.002,0.002L37.3,63.08   c-0.527-0.527-1.381-0.528-1.91-0.003l-0.182,0.181c-0.519,0.52-0.514,1.373,0.014,1.9h-0.001l9.291,9.291l9.292,9.291   c0.593,0.232,2.866,0.909,7.247,2.008c0.057,0.014,0.106,0.027,0.164,0.042l0.909,0.222c0.03,0.007,0.059,0.014,0.089,0.022   c0.233-0.238,0.467-0.474,0.701-0.711c2.089-2.119,4.2-4.226,6.267-6.273c1.12-1.109,2.239-2.218,3.354-3.33L69.4,61.845   L68.937,59.798z"></path><path fill="none" d="M81.991,34.99c-3.882-3.792-7.759-7.698-11.517-11.491c-1.969-1.986-3.938-3.972-5.912-5.947l-27.725,6.257   L18.95,41.708c2.47,2.425,6.434,2.423,8.911,0.011l11.787-11.786c0.133-0.193,0.303-0.362,0.503-0.503l0.189-0.189l0.043,0.043   c0.976-0.509,2.181-0.16,2.727,0.804c0.283,0.5,0.639,0.972,1.028,1.428c1.761,2.067,4.527,3.646,7.749,4.335   c3.092,0.662,6.01,0.339,7.615-0.844c1.005-0.739,2.458-0.426,3.048,0.734c0.479,0.942,0.094,2.067-0.772,2.673   c-1.749,1.225-4.165,1.866-6.851,1.866c-1.253,0-2.566-0.14-3.897-0.425c-3.964-0.848-7.439-2.819-9.79-5.441   c-0.064-0.071-0.123-0.146-0.185-0.218L30.752,44.496c-0.035,0.035-0.073,0.064-0.108,0.098L9.916,65.321   c-0.553,0.553-0.857,1.292-0.857,2.083s0.304,1.53,0.857,2.083l0.299,0.299c1.15,1.15,3.015,1.15,4.165,0l11.569-11.569   l2.829,2.829l0,0L11.46,78.363c-0.553,0.552-0.857,1.292-0.857,2.083c0,0.79,0.304,1.53,0.857,2.082l0.299,0.299   c1.145,1.145,3.019,1.145,4.164,0l4.79-4.79c0,0,0.001-0.001,0.001-0.001l3.431-3.431l7.954-7.954   c-0.175-0.262-0.265-0.562-0.274-0.865c-0.231-0.637-0.336-1.309-0.281-1.976c0.087-1.054,0.532-2.082,1.335-2.885l0.185-0.184   c0.333-0.333,0.713-0.583,1.109-0.793l-0.062-0.062c-1.812-1.812-1.812-4.75,0-6.562l0.181-0.181   c0.341-0.341,0.73-0.596,1.136-0.808c-1.59-1.821-1.537-4.586,0.197-6.321l0.181-0.181c1.812-1.812,4.749-1.812,6.561,0   l0.354,0.354c0.21-0.395,0.46-0.775,0.793-1.107l0.181-0.181c1.812-1.812,4.75-1.812,6.561,0l8.174,8.174   c0.288-1.129,0.865-2.198,1.746-3.08l1.152-1.152c0.467-0.467,1.225-0.467,1.692,0l6.091,6.091l1.939,1.939l7.156-7.157   c0.411-0.934,1.707-5.419,3.474-12.482c0.113-0.473,0.235-0.966,0.356-1.457c0.024-0.098,0.047-0.194,0.071-0.291l-0.306-0.306   L81.991,34.99z"></path><path d="M84.82,32.161c-3.871-3.781-7.747-7.686-11.506-11.478c-1.961-1.978-3.924-3.954-5.89-5.921L74.7,7.487L72.213,5   l-8.684,8.684l-28.138,6.351c-0.042,0.009-0.079,0.028-0.12,0.04c-0.078,0.023-0.157,0.045-0.231,0.077   c-0.058,0.025-0.111,0.057-0.166,0.088c-0.059,0.032-0.119,0.063-0.174,0.1c-0.065,0.044-0.122,0.096-0.18,0.147   c-0.034,0.03-0.072,0.053-0.104,0.085L13.293,41.709l2.788,2.787c1.697,1.697,3.841,2.672,6.057,2.945L7.087,62.492   c-2.707,2.708-2.707,7.115,0,9.823l0.299,0.299c0.745,0.745,1.621,1.278,2.553,1.613l-1.308,1.308   c-2.708,2.708-2.708,7.114,0,9.822l0.299,0.299c1.354,1.354,3.132,2.031,4.911,2.031c1.778,0,3.557-0.677,4.911-2.031l0.349-0.349   c0.335,0.931,0.867,1.807,1.612,2.552l0.299,0.299c1.309,1.308,3.053,2.028,4.911,2.028c1.86,0,3.604-0.72,4.912-2.028l0.827-0.827   c0.334,0.935,0.867,1.813,1.614,2.561l0.302,0.302c1.303,1.303,3.039,2.019,4.893,2.019c0.009,0,0.018,0,0.027,0   c1.856-0.007,3.598-0.731,4.905-2.038l5.831-5.831c0.002-0.002,0.003-0.003,0.005-0.004l0.25-0.25l2.184,2.184   c0.118,0.118,0.252,0.206,0.391,0.281c0.042,0.022,0.082,0.048,0.126,0.066c0.011,0.005,0.022,0.012,0.033,0.016   c0.638,0.307,2.343,0.878,7.745,2.239L66.095,95l1.165-1.166l1.166-1.166l-4.091-4.091c2.371-2.424,4.798-4.841,7.166-7.186   c1.035-1.024,2.066-2.05,3.098-3.077l4.091,4.091l1.166-1.166l1.165-1.165l-5.323-5.323l-3.111-13.759l8.381-8.381   c0.001-0.001,0.003-0.003,0.004-0.004l0.294-0.294c0.199-0.199,0.346-0.43,0.444-0.677c0.458-0.935,1.418-3.707,3.858-13.453   c0.116-0.484,0.235-0.968,0.354-1.45c0.046-0.185,0.089-0.367,0.134-0.552c0.031-0.032,0.067-0.056,0.096-0.09   c0.165-0.193,0.272-0.414,0.35-0.642l8.443-8.443l-2.487-2.487L84.82,32.161z M28.007,85.329c-1.147,1.147-3.015,1.149-4.165,0   l-0.299-0.299c-1.148-1.148-1.148-3.017,0-4.165l3.432-3.431l7.93-7.93l4.464,4.464L28.007,85.329z M40.576,87.345   c-0.555,0.556-1.298,0.863-2.091,0.866c-0.818,0.012-1.528-0.298-2.076-0.848l-0.302-0.302c-1.149-1.149-1.145-3.023,0.009-4.177   l6.085-6.085l4.46,4.46L40.576,87.345z M69.182,79.05c-2.068,2.048-4.178,4.154-6.267,6.273c-0.234,0.237-0.468,0.474-0.701,0.711   c-0.03-0.007-0.059-0.014-0.089-0.022l-0.909-0.222c-0.058-0.015-0.107-0.027-0.164-0.042c-4.381-1.1-6.654-1.777-7.247-2.008   l-9.292-9.291l-9.291-9.291h0.001c-0.528-0.527-0.533-1.38-0.014-1.9l0.182-0.181c0.529-0.526,1.383-0.524,1.91,0.003l4.777,4.777   l0.002-0.002l2.331-2.331l-7.969-7.969c-0.525-0.525-0.525-1.375,0-1.9l0.181-0.181c0.261-0.262,0.605-0.393,0.951-0.393   c0.344,0,0.687,0.131,0.949,0.393l7.969,7.97l2.331-2.331L37.955,50.244c-0.525-0.525-0.525-1.375,0-1.9l0.181-0.181   c0.261-0.262,0.605-0.393,0.95-0.393s0.688,0.131,0.95,0.393l10.781,10.781l0.087,0.087l1.21-1.21l1.035-1.208l-7.302-7.303   c-0.524-0.525-0.525-1.375,0-1.9l0.181-0.181c0.523-0.524,1.376-0.524,1.899,0l16.183,15.813l0.415,0.416l2.098-1.977l-0.057-0.125   c-0.036-0.076-0.242-0.383-0.314-0.456l0.004-0.004l-3.784-3.784c-1.096-1.135-1.256-2.846-0.469-4.144   c0.093-0.153,0.316-0.17,0.443-0.043l6.031,6.031c0.231,0.231,0.392,0.522,0.464,0.841l0.463,2.048l3.136,13.875   C71.421,76.832,70.302,77.941,69.182,79.05z M82.037,35.776c-0.121,0.49-0.243,0.983-0.356,1.457   c-1.768,7.063-3.064,11.548-3.474,12.482l-7.156,7.157l-1.939-1.939l-6.091-6.091c-0.467-0.467-1.225-0.467-1.692,0l-1.152,1.152   c-0.881,0.882-1.458,1.951-1.746,3.08L50.255,44.9c-1.812-1.812-4.75-1.812-6.561,0l-0.181,0.181   c-0.333,0.333-0.583,0.712-0.793,1.107l-0.354-0.354c-1.812-1.812-4.749-1.812-6.561,0l-0.181,0.181   c-1.733,1.734-1.787,4.5-0.197,6.321c-0.406,0.212-0.796,0.468-1.136,0.808l-0.181,0.181c-1.812,1.812-1.812,4.75,0,6.562   l0.062,0.062c-0.396,0.21-0.776,0.461-1.109,0.793l-0.185,0.184c-0.803,0.803-1.248,1.832-1.335,2.885   c-0.055,0.667,0.05,1.339,0.281,1.976c0.009,0.303,0.099,0.603,0.274,0.865l-7.954,7.954l-3.431,3.431c0,0-0.001,0.001-0.001,0.001   l-4.79,4.79c-1.145,1.145-3.019,1.145-4.164,0l-0.299-0.299c-0.553-0.552-0.857-1.292-0.857-2.082c0-0.791,0.304-1.53,0.857-2.083   l17.318-17.318l0,0l-2.829-2.829L14.38,69.785c-1.15,1.15-3.015,1.15-4.165,0l-0.299-0.299c-0.553-0.552-0.857-1.292-0.857-2.083   s0.304-1.53,0.857-2.083l20.727-20.727c0.035-0.034,0.073-0.063,0.108-0.098l10.301-10.301c0.062,0.072,0.121,0.147,0.185,0.218   c2.352,2.622,5.827,4.593,9.79,5.441c1.331,0.285,2.644,0.425,3.897,0.425c2.686,0,5.102-0.641,6.851-1.866   c0.865-0.606,1.25-1.731,0.772-2.673c-0.59-1.161-2.043-1.473-3.048-0.734c-1.605,1.183-4.523,1.506-7.615,0.844   c-3.222-0.689-5.988-2.268-7.749-4.335c-0.389-0.456-0.745-0.928-1.028-1.428c-0.545-0.964-1.751-1.313-2.727-0.804L40.34,29.24   l-0.189,0.189c-0.201,0.141-0.37,0.31-0.503,0.503L27.861,41.719c-2.477,2.412-6.441,2.415-8.911-0.011l17.886-17.899l27.725-6.257   c1.975,1.975,3.944,3.961,5.912,5.947c3.758,3.792,7.635,7.698,11.517,11.491l-0.189,0.189l0.306,0.306   C82.084,35.582,82.061,35.678,82.037,35.776z"></path></g></svg></g>
    <g id="title" style="font-style:normal;font-weight:700;font-size:72px;line-height:1;font-family:'Libre Baskerville';font-variant-ligatures:none;text-align:center;text-anchor:middle" aria-label="ParentingGift">
      <path id="path14" style="font-style: normal; font-weight: 700; font-size: 72px; line-height: 1; font-family: &quot;Libre Baskerville&quot;; font-variant-ligatures: none; text-align: center; text-anchor: middle;" d="m 302.10312,-40.032 q 0,7.776 -6.048,11.88 -6.048,4.032 -17.568,4.032 h -6.12 v 12.672 q 0,2.736 0.36,4.464 0.36001,1.656 1.512,2.592 1.152,0.936 3.168,1.224 2.01601,0.288 5.4,0.288 V 0 h -28.584 v -2.88 q 2.37601,-0.072 3.88801,-0.432 1.512,-0.36 2.30399,-1.224 0.79201,-0.864 1.08001,-2.448 0.28799,-1.584 0.28799,-4.104 v -33.264 q 0,-2.52 -0.28799,-4.032 -0.216,-1.584 -0.93601,-2.448 -0.71999,-0.936 -2.088,-1.224 -1.296,-0.36 -3.456,-0.504 v -2.88 h 24.912 q 10.944,0 16.56,3.888 5.616,3.888 5.616,11.52 z m -29.736,11.592 h 4.68 q 6.984,0 10.224,-2.808 3.24,-2.808 3.24,-8.856 0,-5.4 -2.736,-8.352 -2.73599,-2.952 -8.56799,-2.952 h -5.54401 q -1.296,0 -1.296,1.224 z" transform="translate(0 368.7746153846154) translate(299.08336538461515 67.11384615384611) scale(0.76923076923077) translate(-254.22312 55.44)"></path>
      <path id="path16" style="font-style: normal; font-weight: 700; font-size: 72px; line-height: 1; font-family: &quot;Libre Baskerville&quot;; font-variant-ligatures: none; text-align: center; text-anchor: middle;" d="m 327.37738,-20.52 q -6.048,2.736 -9.144,5.112 -3.024,2.304 -3.024,4.824 0,2.088 1.15199,3.312 1.152,1.224 2.88,1.224 1.72801,0 3.24001,-0.576 1.512,-0.648 2.59199,-1.656 1.08,-1.008 1.656,-2.376 0.64801,-1.44 0.64801,-3.024 z m 0,-3.816 v -3.024 q 0,-4.176 -1.51201,-6.048 -1.44,-1.944 -4.53599,-1.944 -2.08801,0 -3.168,1.152 -1.08001,1.08 -2.01601,3.672 -0.648,1.8 -1.872,2.808 -1.152,1.008 -3.24,1.008 -2.01599,0 -3.096,-1.224 -1.08,-1.224 -1.08,-3.456 0,-3.456 3.74401,-5.472 3.81599,-2.016 11.44799,-2.016 8.06401,0 11.52,2.952 3.456,2.88 3.456,9.72 v 15.768 q 0,6.12 2.44801,6.12 1.36799,0 2.52,-0.936 l 1.07999,2.088 q -1.00799,1.8 -3.168,2.88 -2.088,1.008 -4.752,1.008 -3.31199,0 -5.03999,-2.016 -1.72801,-2.016 -1.72801,-5.688 h -0.36 q -2.088,3.744 -5.39999,5.688 -3.31201,1.944 -7.56,1.944 -4.536,0 -7.272,-2.52 -2.73601,-2.592 -2.73601,-6.696 0,-3.168 2.808,-5.904 2.80801,-2.808 9.36,-5.472 z" transform="translate(0 368.7746153846154) translate(340.4943269230767 79.85230769230766) scale(0.76923076923077) translate(-305.05737 38.88)"></path>
      <path id="path18" style="font-style: normal; font-weight: 700; font-size: 72px; line-height: 1; font-family: &quot;Libre Baskerville&quot;; font-variant-ligatures: none; text-align: center; text-anchor: middle;" d="m 362.52913,-11.16 q 0,2.808 0.216,4.464 0.28799,1.584 1.08,2.448 0.79199,0.864 2.30399,1.152 1.512,0.216 4.032,0.216 V 0 h -24.04799 v -2.88 q 2.15999,-0.144 3.45599,-0.432 1.296,-0.288 1.944,-1.152 0.64801,-0.864 0.792,-2.448 0.216,-1.656 0.216,-4.392 v -8.784 q 0,-4.464 -0.216,-7.128 -0.21599,-2.664 -0.936,-4.104 -0.71999,-1.44 -2.088,-1.872 -1.296,-0.504 -3.45599,-0.504 v -2.52 l 14.39999,-2.664 1.152,8.28 h 0.288 q 1.944,-3.816 5.112,-6.048 3.16801,-2.232 6.696,-2.232 2.736,0 4.464,1.368 1.728,1.368 1.728,3.456 0,2.304 -1.368,3.888 -1.296,1.584 -3.59999,1.584 -1.08001,0 -1.94401,-0.432 -0.864,-0.432 -1.584,-0.936 -0.648,-0.576 -1.36799,-1.008 -0.64801,-0.504 -1.368,-0.504 -1.368,0 -2.59201,1.8 -1.224,1.8 -2.01599,4.824 -0.57601,2.16 -0.93601,4.896 -0.35999,2.664 -0.35999,5.328 z" transform="translate(0 368.7746153846154) translate(374.1618346153844 79.85230769230766) scale(0.76923076923077) translate(-345.82513 38.88)"></path>
      <path id="path20" style="font-style: normal; font-weight: 700; font-size: 72px; line-height: 1; font-family: &quot;Libre Baskerville&quot;; font-variant-ligatures: none; text-align: center; text-anchor: middle;" d="m 418.27062,-6.696 q -6.552,7.416 -16.344,7.416 -4.464,0 -8.136,-1.368 -3.6,-1.44 -6.19199,-3.96 -2.59201,-2.592 -4.03201,-6.12 -1.44,-3.528 -1.44,-7.848 0,-4.464 1.512,-8.136 1.512,-3.744 4.248,-6.408 2.808,-2.736 6.552,-4.248 3.816,-1.512 8.352,-1.512 7.632,0 11.88,4.104 4.24801,4.104 4.24801,11.52 0,1.152 -0.36001,1.44 -0.36,0.216 -2.016,0.216 h -23.18399 q -0.28801,0.648 -0.28801,2.376 0,7.056 3.024,11.16 3.096,4.104 8.352,4.104 3.024,0 5.976,-1.368 3.024,-1.368 5.83201,-3.888 z m -13.968,-18.936 q 2.88001,0 3.672,-0.288 0.864,-0.36 0.864,-1.584 0,-3.168 -1.79999,-5.184 -1.8,-2.016 -4.536,-2.016 -3.096,0 -5.54401,2.592 -2.376,2.52 -3.096,6.48 z" transform="translate(0 368.7746153846154) translate(404.3937499999998 79.85230769230766) scale(0.76923076923077) translate(-382.12662 38.88)"></path>
      <path id="path22" style="font-style: normal; font-weight: 700; font-size: 72px; line-height: 1; font-family: &quot;Libre Baskerville&quot;; font-variant-ligatures: none; text-align: center; text-anchor: middle;" d="m 440.08213,-11.736 q 0,2.952 0.144,4.68 0.21599,1.656 0.79199,2.592 0.64801,0.864 1.872,1.152 1.296,0.288 3.45601,0.432 V 0 h -22.68 v -2.88 q 2.08799,-0.144 3.31199,-0.432 1.29601,-0.288 1.944,-1.152 0.72001,-0.864 0.936,-2.448 0.216,-1.584 0.216,-4.32 v -9 q 0,-4.248 -0.144,-6.84 -0.14399,-2.664 -0.35999,-3.6 -0.21601,-0.936 -0.57601,-1.512 -0.36,-0.648 -1.07999,-0.936 -0.72001,-0.36 -1.80001,-0.432 -1.07999,-0.144 -2.736,-0.144 v -2.448 l 13.89601,-2.736 0.93599,6.336 h 0.28801 q 2.37599,-3.024 5.61599,-4.68 3.24,-1.656 7.128,-1.656 4.608,0 7.416,1.296 2.88,1.224 5.112,4.176 1.224,1.656 2.16,4.32 0.936,2.592 0.936,7.2 v 10.152 q 0,2.952 0.14401,4.68 0.216,1.656 0.79199,2.592 0.64801,0.864 1.872,1.152 1.224,0.288 3.31201,0.432 V 0 h -22.536 v -2.88 q 2.15999,-0.072 3.38399,-0.36 1.29601,-0.36 1.944,-1.224 0.64801,-0.864 0.86401,-2.448 0.21599,-1.656 0.21599,-4.32 v -9.792 q 0,-3.672 -0.43199,-6.192 -0.43201,-2.52 -1.44,-4.032 -0.93601,-1.584 -2.52001,-2.232 -1.584,-0.72 -3.96,-0.72 -2.30399,0 -3.95999,1.296 -1.65601,1.296 -2.88,3.6 -0.64801,1.296 -1.15201,3.384 -0.43199,2.016 -0.43199,4.248 z" transform="translate(0 368.7746153846154) translate(438.43336538461523 79.85230769230766) scale(0.76923076923077) translate(-423.37812 38.88)"></path>
      <path id="path24" style="font-style: normal; font-weight: 700; font-size: 72px; line-height: 1; font-family: &quot;Libre Baskerville&quot;; font-variant-ligatures: none; text-align: center; text-anchor: middle;" d="m 475.69062,-34.2 v -3.24 q 4.32,-1.224 7.2,-3.672 2.952,-2.52 4.392,-5.76 h 3.67201 v 8.712 h 8.27999 v 3.96 h -8.27999 v 22.104 q 0,4.464 0.93599,6.336 1.008,1.872 3.312,1.872 2.808,0 4.248,-2.592 l 1.512,2.088 q -2.016,5.112 -9.504,5.112 -4.96799,0 -7.77599,-2.304 -2.73601,-2.304 -2.73601,-6.48 V -34.2 Z" transform="translate(0 368.7746153846154) translate(480.9814423076922 73.70461538461535) scale(0.76923076923077) translate(-475.69062 46.872)"></path>
      <path id="path26" style="font-style: normal; font-weight: 700; font-size: 72px; line-height: 1; font-family: &quot;Libre Baskerville&quot;; font-variant-ligatures: none; text-align: center; text-anchor: middle;" d="m 519.95713,-11.808 q 0,2.88 0.216,4.608 0.216,1.728 0.864,2.664 0.64799,0.936 1.872,1.296 1.22399,0.288 3.312,0.36 V 0 h -22.68 v -2.88 q 2.01599,-0.072 3.23999,-0.432 1.29601,-0.432 1.944,-1.296 0.72001,-0.936 0.93601,-2.52 0.28799,-1.656 0.28799,-4.176 v -8.856 q 0,-4.176 -0.144,-6.84 -0.14399,-2.736 -0.35999,-3.744 -0.36001,-1.8 -1.656,-2.376 -1.224,-0.576 -4.53601,-0.576 v -2.448 l 16.70401,-2.736 z m -10.584,-42.336 q 0,-2.376 1.584,-3.96 1.65599,-1.656 3.96,-1.656 2.376,0 3.95999,1.656 1.65601,1.584 1.65601,3.96 0,2.304 -1.65601,3.96 -1.58399,1.584 -3.95999,1.584 -2.30401,0 -3.96,-1.584 -1.584,-1.656 -1.584,-3.96 z" transform="translate(0 368.7746153846154) translate(504.4910576923076 63.79076923076918) scale(0.76923076923077) translate(-503.25312 59.76)"></path>
      <path id="path28" style="font-style: normal; font-weight: 700; font-size: 72px; line-height: 1; font-family: &quot;Libre Baskerville&quot;; font-variant-ligatures: none; text-align: center; text-anchor: middle;" d="m 545.97275,-11.736 q 0,2.952 0.144,4.68 0.216,1.656 0.792,2.592 0.648,0.864 1.872,1.152 1.296,0.288 3.456,0.432 V 0 h -22.68 v -2.88 q 2.088,-0.144 3.312,-0.432 1.296,-0.288 1.944,-1.152 0.72,-0.864 0.936,-2.448 0.216,-1.584 0.216,-4.32 v -9 q 0,-4.248 -0.144,-6.84 -0.144,-2.664 -0.36,-3.6 -0.216,-0.936 -0.576,-1.512 -0.36,-0.648 -1.08,-0.936 -0.72,-0.36 -1.8,-0.432 -1.08,-0.144 -2.736,-0.144 v -2.448 l 13.896,-2.736 0.936,6.336 h 0.288 q 2.376,-3.024 5.616,-4.68 3.24,-1.656 7.128,-1.656 4.608,0 7.416,1.296 2.88,1.224 5.112,4.176 1.224,1.656 2.16,4.32 0.936,2.592 0.936,7.2 v 10.152 q 0,2.952 0.144,4.68 0.216,1.656 0.792,2.592 0.648,0.864 1.872,1.152 1.224,0.288 3.312,0.432 V 0 h -22.536 v -2.88 q 2.16,-0.072 3.384,-0.36 1.296,-0.36 1.944,-1.224 0.648,-0.864 0.864,-2.448 0.216,-1.656 0.216,-4.32 v -9.792 q 0,-3.672 -0.432,-6.192 -0.432,-2.52 -1.44,-4.032 -0.936,-1.584 -2.52,-2.232 -1.584,-0.72 -3.96,-0.72 -2.304,0 -3.96,1.296 -1.656,1.296 -2.88,3.6 -0.648,1.296 -1.152,3.384 -0.432,2.016 -0.432,4.248 z" transform="translate(0 368.7746153846154) translate(526.8107730769229 79.85230769230766) scale(0.76923076923077) translate(-529.26875 38.88)"></path>
      <path id="path30" style="font-style: normal; font-weight: 700; font-size: 72px; line-height: 1; font-family: &quot;Libre Baskerville&quot;; font-variant-ligatures: none; text-align: center; text-anchor: middle;" d="m 596.19725,-7.776 q 1.944,0.144 3.384,0.288 1.512,0.144 2.808,0.36 1.368,0.144 2.664,0.36 1.368,0.144 2.88,0.36 5.616,0.792 8.784,4.248 3.24,3.384 3.24,8.424 0,6.12 -5.04,9.288 -5.04,3.168 -14.832,3.168 -9,0 -13.896,-2.664 -4.824,-2.592 -4.824,-7.416 0,-3.744 1.944,-5.688 1.944,-1.872 4.896,-1.872 1.872,0 3.6,0.72 1.8,0.792 3.024,2.232 -1.872,0.36 -3.096,1.656 -1.152,1.368 -1.152,3.168 0,2.88 2.52,4.392 2.592,1.584 7.56,1.584 10.8,0 10.8,-6.84 0,-2.448 -1.656,-4.248 -1.584,-1.728 -4.608,-2.088 l -12.6,-1.728 q -7.992,-1.08 -7.992,-7.128 0,-2.952 1.872,-4.824 1.944,-1.872 5.472,-2.592 v -0.288 q -1.656,-0.648 -3.024,-1.8 -1.296,-1.152 -2.304,-2.664 -1.008,-1.512 -1.584,-3.24 -0.504,-1.8 -0.504,-3.672 0,-2.664 1.08,-4.968 1.152,-2.376 3.096,-4.032 2.016,-1.656 4.68,-2.592 2.736,-1.008 5.904,-1.008 3.096,0 6.048,0.936 2.952,0.936 5.04,2.592 1.656,-1.008 2.88,-1.656 1.224,-0.72 2.232,-1.08 1.08,-0.432 1.944,-0.576 0.864,-0.216 1.728,-0.216 2.736,0 4.392,1.224 1.728,1.224 1.728,3.24 0,1.512 -0.936,2.52 -0.936,0.936 -2.448,0.936 -1.08,0 -1.728,-0.432 -0.648,-0.504 -1.296,-1.08 -0.576,-0.648 -1.224,-1.08 -0.648,-0.504 -1.728,-0.504 -1.512,0 -2.88,1.944 0.72,1.224 1.008,2.664 0.288,1.368 0.288,3.24 0,2.736 -0.864,5.04 -0.864,2.304 -2.736,4.104 -1.8,1.728 -4.68,2.952 -2.88,1.224 -6.984,1.656 -3.456,0.36 -4.824,0.936 -1.296,0.576 -1.296,1.728 0,1.728 3.24,2.016 z m 3.456,-8.784 q 2.304,0 3.6,-2.448 1.296,-2.448 1.296,-6.84 0,-4.464 -1.296,-6.84 -1.296,-2.448 -3.672,-2.448 -2.448,0 -3.888,2.448 -1.44,2.448 -1.44,6.696 0,4.32 1.44,6.912 1.512,2.52 3.96,2.52 z" transform="translate(0 368.7746153846154) translate(569.1926961538461 79.85230769230766) scale(0.76923076923077) translate(-581.36525 38.88)"></path>
      <path id="path32" style="font-style: normal; font-weight: 700; font-size: 72px; line-height: 1; font-family: &quot;Libre Baskerville&quot;; font-variant-ligatures: none; text-align: center; text-anchor: middle;" d="m 655.19225,0.72 q -6.48,0 -11.736,-1.872 -5.184,-1.944 -8.856,-5.472 -3.6,-3.6 -5.616,-8.64 -1.944,-5.112 -1.944,-11.448 0,-6.552 2.088,-11.952 2.16,-5.472 5.976,-9.36 3.816,-3.888 9.144,-5.976 5.328,-2.16 11.808,-2.16 4.464,0 8.496,1.224 4.032,1.224 8.712,3.96 l 1.368,-4.464 h 2.592 v 18.216 h -3.6 q -1.44,-6.768 -5.832,-10.512 -4.32,-3.744 -10.872,-3.744 -8.28,0 -12.888,6.408 -4.536,6.336 -4.536,17.784 0,11.232 4.464,17.208 4.464,5.976 12.96,5.976 6.12,0 9.504,-3.096 3.456,-3.168 3.456,-8.712 0,-3.312 -1.728,-4.824 -1.728,-1.584 -5.832,-1.944 v -2.88 h 23.328 v 2.88 q -3.528,0 -4.896,1.584 -1.368,1.512 -1.368,5.544 v 9.576 q -1.584,0 -2.664,0.144 -1.08,0.072 -2.16,0.432 -1.008,0.288 -2.304,1.008 -1.296,0.72 -3.24,1.872 -5.544,3.24 -13.824,3.24 z" transform="translate(0 368.7746153846154) translate(606.635003846154 66.55999999999995) scale(0.76923076923077) translate(-627.04025 56.16)"></path>
      <path id="path34" style="font-style: normal; font-weight: 700; font-size: 72px; line-height: 1; font-family: &quot;Libre Baskerville&quot;; font-variant-ligatures: none; text-align: center; text-anchor: middle;" d="m 705.30088,-11.808 q 0,2.88 0.216,4.608 0.216,1.728 0.864,2.664 0.64799,0.936 1.872,1.296 1.22399,0.288 3.312,0.36 V 0 h -22.68001 v -2.88 q 2.01601,-0.072 3.24,-0.432 1.29601,-0.432 1.94401,-1.296 0.71999,-0.936 0.93599,-2.52 0.288,-1.656 0.288,-4.176 v -8.856 q 0,-4.176 -0.144,-6.84 -0.144,-2.736 -0.36,-3.744 -0.36,-1.8 -1.65599,-2.376 -1.22401,-0.576 -4.53601,-0.576 v -2.448 l 16.70401,-2.736 z m -10.58401,-42.336 q 0,-2.376 1.58401,-3.96 1.65599,-1.656 3.96,-1.656 2.376,0 3.95999,1.656 1.65601,1.584 1.65601,3.96 0,2.304 -1.65601,3.96 -1.58399,1.584 -3.95999,1.584 -2.30401,0 -3.96,-1.584 -1.58401,-1.656 -1.58401,-3.96 z" transform="translate(0 368.7746153846154) translate(656.2939423076925 63.79076923076918) scale(0.76923076923077) translate(-688.59687 59.76)"></path>
      <path id="path36" style="font-style: normal; font-weight: 700; font-size: 72px; line-height: 1; font-family: &quot;Libre Baskerville&quot;; font-variant-ligatures: none; text-align: center; text-anchor: middle;" d="m 714.0365,-38.16 h 7.776 v -4.032 q 0,-3.888 1.296,-7.128 1.368,-3.24 3.744,-5.544 2.376,-2.376 5.688,-3.6 3.384,-1.296 7.488,-1.296 2.448,0 4.464,0.504 2.088,0.432 3.6,1.224 1.512,0.792 2.304,1.944 0.864,1.152 0.864,2.448 0,1.656 -1.224,2.736 -1.224,1.08 -3.096,1.08 -1.296,0 -2.304,-0.864 -0.936,-0.864 -2.88,-3.168 -0.864,-1.008 -1.8,-1.44 -0.936,-0.432 -1.944,-0.432 -2.88,0 -4.536,3.528 -1.656,3.456 -1.656,9.576 v 4.464 h 12.168 v 3.96 h -12.168 v 22.248 q 0,2.736 0.288,4.464 0.36,1.728 1.224,2.736 0.936,1.008 2.448,1.44 1.512,0.36 3.888,0.432 V 0 h -24.336 v -2.88 q 2.16,-0.072 3.456,-0.36 1.296,-0.36 1.944,-1.224 0.648,-0.936 0.864,-2.52 0.216,-1.656 0.216,-4.392 V -34.2 h -7.776 z" transform="translate(0 368.7746153846154) translate(678.170580769231 63.79076923076918) scale(0.76923076923077) translate(-714.0365 59.76)"></path>
      <path id="path38" style="font-style: normal; font-weight: 700; font-size: 72px; line-height: 1; font-family: &quot;Libre Baskerville&quot;; font-variant-ligatures: none; text-align: center; text-anchor: middle;" d="m 746.53437,-34.2 v -3.24 q 4.32,-1.224 7.2,-3.672 2.952,-2.52 4.39201,-5.76 h 3.67199 v 8.712 h 8.28001 v 3.96 h -8.28001 v 22.104 q 0,4.464 0.936,6.336 1.00801,1.872 3.312,1.872 2.808,0 4.248,-2.592 l 1.512,2.088 q -2.01599,5.112 -9.504,5.112 -4.96799,0 -7.77599,-2.304 -2.736,-2.304 -2.736,-6.48 V -34.2 Z" transform="translate(0 368.7746153846154) translate(705.4766346153848 73.70461538461535) scale(0.76923076923077) translate(-746.53437 46.872)"></path>
    </g>
    <g id="tagline" style="font-style:oblique;font-weight:normal;font-size:32px;line-height:1;font-family:'Libre Baskerville';font-variant-ligatures:none;text-align:center;text-anchor:middle"></g>
  </g>
</svg>
