<svg id="レイヤー_1" data-name="レイヤー 1" xmlns="http://www.w3.org/2000/svg" viewBox="0 0 768 576"><defs><style>.cls-1{fill:#138de8;}.cls-2{fill:#fff;}</style></defs><title>logo</title><rect class="cls-1" width="768" height="576"/><path class="cls-1" d="M578.6,423.24a3.5,3.5,0,0,0,0,4.94l.36.36a3.31,3.31,0,0,0,2.45,1,3.48,3.48,0,0,0,2.47-1l7.19-7.19-5.27-5.27Zm0,0" transform="translate(-211 -133.89)"/><path class="cls-1" d="M577.17,407.44l-9.37,9.37-4.06,4.05a3.49,3.49,0,0,0,0,4.92l.36.35a3.48,3.48,0,0,0,4.92,0l13.42-13.42Zm0,0" transform="translate(-211 -133.89)"/><path class="cls-1" d="M617.37,396a2,2,0,0,0-.55-1l-7.12-7.12a.34.34,0,0,0-.52.05,4,4,0,0,0,.55,4.89l4.47,4.47h0a3.71,3.71,0,0,1,.37.54l.07.15-2.48,2.34-.49-.49-19.12-18.68a1.58,1.58,0,0,0-2.24,0l-.21.21a1.59,1.59,0,0,0,0,2.25l8.63,8.63-1.22,1.43-1.43,1.43L596,395l-12.73-12.73a1.59,1.59,0,0,0-2.25,0l-.21.21a1.59,1.59,0,0,0,0,2.25l12.84,12.84-2.75,2.75-9.41-9.41a1.59,1.59,0,0,0-2.25,0l-.21.21a1.6,1.6,0,0,0,0,2.25l9.41,9.41-2.75,2.75h0L580,399.85a1.6,1.6,0,0,0-2.26,0l-.22.22a1.59,1.59,0,0,0,0,2.25l21.95,21.95c.7.27,3.39,1.07,8.56,2.37l.19.05,1.07.26.11,0,.83-.84c2.47-2.5,5-5,7.4-7.41l4-3.93-3.7-16.39Zm0,0" transform="translate(-211 -133.89)"/><path class="cls-1" d="M632.79,366.67c-4.59-4.48-9.16-9.09-13.61-13.57q-3.49-3.52-7-7l-32.75,7.39L558.32,374.6a7.54,7.54,0,0,0,10.53,0l13.93-13.92a2.27,2.27,0,0,1,.59-.59l.22-.23.05.05a2.41,2.41,0,0,1,3.22,1,11.25,11.25,0,0,0,1.21,1.68,16.59,16.59,0,0,0,9.16,5.12c3.65.78,7.1.4,9-1a2.42,2.42,0,0,1,3.6.87,2.5,2.5,0,0,1-.91,3.16,14.16,14.16,0,0,1-8.09,2.21,22.14,22.14,0,0,1-4.61-.5A21.65,21.65,0,0,1,584.65,366l-.22-.26L572.26,377.9l-.12.11L547.65,402.5a3.49,3.49,0,0,0,0,4.92l.35.35a3.48,3.48,0,0,0,4.92,0l13.66-13.66,3.34,3.34-20.45,20.46a3.48,3.48,0,0,0,0,4.92l.35.35a3.49,3.49,0,0,0,4.92,0l19.11-19.11a2,2,0,0,1-.32-1,5.51,5.51,0,0,1-.33-2.34,5.42,5.42,0,0,1,1.58-3.41l.22-.22a5.35,5.35,0,0,1,1.31-.94l-.08-.07a5.48,5.48,0,0,1,0-7.75l.22-.21a5.43,5.43,0,0,1,1.34-1,5.47,5.47,0,0,1,.23-7.46l.21-.21a5.48,5.48,0,0,1,7.75,0l.42.42a5.3,5.3,0,0,1,.94-1.31l.21-.21a5.48,5.48,0,0,1,7.75,0L605,388a7.89,7.89,0,0,1,2.06-3.64l1.36-1.36a1.41,1.41,0,0,1,2,0l9.49,9.49,8.45-8.46c.49-1.1,2-6.4,4.11-14.74.13-.56.28-1.14.42-1.72l.08-.34-.36-.36Zm0,0" transform="translate(-211 -133.89)"/><path class="cls-2" d="M636.13,363.33c-4.57-4.46-9.15-9.08-13.59-13.56q-3.47-3.5-7-7l8.59-8.59-2.94-2.94L611,341.5,577.74,349l-.14,0a2,2,0,0,0-.27.09l-.2.1-.21.12-.21.17-.12.1-24.95,25,3.29,3.29a12.15,12.15,0,0,0,7.16,3.48l-17.78,17.78a8.22,8.22,0,0,0,0,11.6l.36.35a8.09,8.09,0,0,0,3,1.91l-1.55,1.55a8.21,8.21,0,0,0,0,11.6l.35.35a8.21,8.21,0,0,0,11.61,0l.41-.41a8.14,8.14,0,0,0,1.91,3l.35.35a8.23,8.23,0,0,0,11.6,0l1-1a8.1,8.1,0,0,0,1.91,3l.36.36a8.11,8.11,0,0,0,5.78,2.38h0a8.18,8.18,0,0,0,5.79-2.41l6.89-6.89h0l.29-.29,2.58,2.58a1.83,1.83,0,0,0,.46.33l.15.08,0,0c.75.36,2.77,1,9.15,2.65l7.24,7.23,1.38-1.38,1.38-1.38L611.93,430c2.8-2.86,5.67-5.72,8.46-8.49l3.66-3.64,4.83,4.83,2.75-2.75-6.29-6.29-3.67-16.25,9.9-9.9h0l.35-.35a2.39,2.39,0,0,0,.52-.8c.54-1.11,1.68-4.38,4.56-15.89.14-.57.28-1.14.42-1.71l.16-.65.11-.11a2.23,2.23,0,0,0,.41-.76l10-10-2.94-2.94ZM569,426.13a3.48,3.48,0,0,1-4.92,0l-.36-.35a3.48,3.48,0,0,1,0-4.92l13.42-13.42,5.27,5.27Zm14.85,2.38a3.48,3.48,0,0,1-2.47,1,3.32,3.32,0,0,1-2.45-1l-.36-.36a3.49,3.49,0,0,1,0-4.93l7.19-7.19,5.27,5.27Zm33.79-9.8c-2.45,2.42-4.94,4.91-7.41,7.41l-.82.84-.11,0-1.07-.26-.19-.05c-5.18-1.3-7.86-2.1-8.56-2.37l-11-11-11-11a1.59,1.59,0,0,1,0-2.25l.22-.22a1.6,1.6,0,0,1,2.26,0l5.64,5.64,2.76-2.76L579,393.33a1.59,1.59,0,0,1,0-2.25l.22-.21a1.58,1.58,0,0,1,2.24,0l9.41,9.41,2.75-2.75-12.84-12.84a1.59,1.59,0,0,1,0-2.25l.21-.22a1.6,1.6,0,0,1,2.25,0L596,395l.1.1,1.43-1.43,1.22-1.43-8.62-8.63a1.59,1.59,0,0,1,0-2.24l.22-.21a1.59,1.59,0,0,1,2.24,0l19.12,18.68.49.49,2.48-2.34-.07-.15a4.16,4.16,0,0,0-.37-.54h0l-4.47-4.47a4,4,0,0,1-.55-4.9.34.34,0,0,1,.52-.05l7.12,7.13a2,2,0,0,1,.55,1l.55,2.42,3.7,16.39-4,3.93Zm15.18-51.12c-.14.58-.29,1.16-.42,1.72-2.09,8.34-3.62,13.64-4.1,14.75l-8.45,8.45-2.29-2.29-7.19-7.2a1.42,1.42,0,0,0-2,0L607,384.39A7.86,7.86,0,0,0,605,388l-9.66-9.66a5.48,5.48,0,0,0-7.75,0l-.21.21a5.46,5.46,0,0,0-.93,1.31l-.42-.42a5.48,5.48,0,0,0-7.75,0l-.21.21a5.47,5.47,0,0,0-.23,7.46,5.3,5.3,0,0,0-1.34,1l-.22.21a5.48,5.48,0,0,0,0,7.75l.08.07a5.42,5.42,0,0,0-1.31.93l-.22.22a5.43,5.43,0,0,0-1.57,3.41,5.51,5.51,0,0,0,.33,2.34,2,2,0,0,0,.32,1l-13.45,13.45h0l-5.66,5.66a3.49,3.49,0,0,1-4.92,0l-.36-.35a3.5,3.5,0,0,1,0-4.92l20.46-20.46-3.34-3.34-13.66,13.66a3.48,3.48,0,0,1-4.92,0l-.35-.35a3.49,3.49,0,0,1,0-4.92L572.13,378l.13-.12,12.17-12.17.22.26a21.67,21.67,0,0,0,11.57,6.43,22.07,22.07,0,0,0,4.6.5,14.18,14.18,0,0,0,8.09-2.2,2.51,2.51,0,0,0,.91-3.16,2.42,2.42,0,0,0-3.6-.87c-1.89,1.4-5.34,1.78-9,1a16.62,16.62,0,0,1-9.16-5.12,11,11,0,0,1-1.21-1.69,2.41,2.41,0,0,0-3.22-.95l0-.05-.22.22a2.39,2.39,0,0,0-.59.59l-13.93,13.92a7.54,7.54,0,0,1-10.53,0l21.13-21.14,32.75-7.39q3.5,3.5,7,7c4.44,4.48,9,9.09,13.61,13.57l-.22.22.36.36-.08.34Zm0,0" transform="translate(-211 -133.89)"/><path class="cls-2" d="M462.94,469.69a7.77,7.77,0,0,1-3.49,6.86q-3.49,2.33-10.13,2.32h-3.53v7.31a12.91,12.91,0,0,0,.21,2.57,2.55,2.55,0,0,0,.87,1.5,3.72,3.72,0,0,0,1.83.71,23.26,23.26,0,0,0,3.12.16v1.66H435.31v-1.66a11.21,11.21,0,0,0,2.24-.25,2.54,2.54,0,0,0,1.33-.7,2.81,2.81,0,0,0,.62-1.41,13.84,13.84,0,0,0,.17-2.37V467.2a13.08,13.08,0,0,0-.17-2.32,2.75,2.75,0,0,0-.54-1.41,2,2,0,0,0-1.21-.71,10.31,10.31,0,0,0-2-.29v-1.66h14.37q6.32,0,9.55,2.24a7.56,7.56,0,0,1,3.24,6.65Zm-17.16,6.69h2.7q4,0,5.9-1.62t1.87-5.11a6.82,6.82,0,0,0-1.58-4.82q-1.58-1.7-4.94-1.7h-3.2c-.5,0-.75.24-.75.71Zm0,0" transform="translate(-211 -133.89)"/><path class="cls-2" d="M479.25,481A27.67,27.67,0,0,0,474,483.9a3.63,3.63,0,0,0-1.75,2.78,2.69,2.69,0,0,0,.66,1.91,2.2,2.2,0,0,0,1.66.7,5.17,5.17,0,0,0,1.87-.33,5,5,0,0,0,1.5-1,4,4,0,0,0,1-1.37,4.2,4.2,0,0,0,.37-1.75Zm0-2.2V477a5.56,5.56,0,0,0-.87-3.49,3,3,0,0,0-2.62-1.12,2.39,2.39,0,0,0-1.83.67,5.85,5.85,0,0,0-1.16,2.12,3.66,3.66,0,0,1-1.08,1.62,2.75,2.75,0,0,1-1.87.58,2.27,2.27,0,0,1-1.79-.7,2.93,2.93,0,0,1-.62-2,3.52,3.52,0,0,1,2.16-3.16,14.61,14.61,0,0,1,6.6-1.16q4.65,0,6.65,1.7t2,5.61v9.1c0,2.35.47,3.53,1.41,3.53a2.24,2.24,0,0,0,1.45-.54l.62,1.21a4.15,4.15,0,0,1-1.83,1.66,6.25,6.25,0,0,1-2.74.58,3.62,3.62,0,0,1-2.91-1.16,4.89,4.89,0,0,1-1-3.28h-.21a8.16,8.16,0,0,1-7.48,4.4,5.94,5.94,0,0,1-4.2-1.45,5.09,5.09,0,0,1-1.58-3.86,4.71,4.71,0,0,1,1.62-3.41,16.61,16.61,0,0,1,5.4-3.16Zm0,0" transform="translate(-211 -133.89)"/><path class="cls-2" d="M501.26,486.35a21.13,21.13,0,0,0,.12,2.58,2.76,2.76,0,0,0,.63,1.41,2.32,2.32,0,0,0,1.33.66,16.69,16.69,0,0,0,2.32.13v1.66H491.79v-1.66a13.22,13.22,0,0,0,2-.25,1.83,1.83,0,0,0,1.12-.66,2.72,2.72,0,0,0,.46-1.41,20.66,20.66,0,0,0,.13-2.54V481.2q0-2.58-.13-4.11a6.61,6.61,0,0,0-.54-2.37,2,2,0,0,0-1.21-1.08,5.66,5.66,0,0,0-2-.29V471.9l8.31-1.54.66,4.78h.17a9.38,9.38,0,0,1,2.95-3.49,6.57,6.57,0,0,1,3.86-1.29,4,4,0,0,1,2.58.79,2.44,2.44,0,0,1,1,2,3.3,3.3,0,0,1-.79,2.24,2.54,2.54,0,0,1-2.08.91,2.45,2.45,0,0,1-1.12-.25,6.94,6.94,0,0,1-.91-.54,5.32,5.32,0,0,0-.79-.58,1.26,1.26,0,0,0-.79-.29,1.92,1.92,0,0,0-1.5,1,9,9,0,0,0-1.16,2.78,22.41,22.41,0,0,0-.54,2.82,23.17,23.17,0,0,0-.21,3.07Zm0,0" transform="translate(-211 -133.89)"/><path class="cls-2" d="M535.15,488.93a12.07,12.07,0,0,1-9.43,4.28,13.33,13.33,0,0,1-4.7-.79,10.84,10.84,0,0,1-3.57-2.28,10.6,10.6,0,0,1-2.33-3.53,11.85,11.85,0,0,1-.83-4.53,12.23,12.23,0,0,1,.87-4.7,10.68,10.68,0,0,1,2.45-3.7,11.6,11.6,0,0,1,3.78-2.45,13,13,0,0,1,4.82-.87,9.45,9.45,0,0,1,6.85,2.37,8.82,8.82,0,0,1,2.45,6.65c0,.44-.07.72-.21.83a3.08,3.08,0,0,1-1.16.12H520.77a3.88,3.88,0,0,0-.16,1.37,10.64,10.64,0,0,0,1.75,6.44,5.72,5.72,0,0,0,4.82,2.37,8.17,8.17,0,0,0,3.45-.79,13.24,13.24,0,0,0,3.36-2.24ZM527.09,478a7.88,7.88,0,0,0,2.12-.17.88.88,0,0,0,.5-.91,4.33,4.33,0,0,0-1-3,3.35,3.35,0,0,0-2.62-1.16,4.3,4.3,0,0,0-3.2,1.5,7.18,7.18,0,0,0-1.79,3.74Zm0,0" transform="translate(-211 -133.89)"/><path class="cls-2" d="M549.46,486c0,1.14,0,2,.09,2.7a3.82,3.82,0,0,0,.45,1.49,1.81,1.81,0,0,0,1.08.66,13.22,13.22,0,0,0,2,.25v1.66H540v-1.66a11.94,11.94,0,0,0,1.91-.25,1.83,1.83,0,0,0,1.12-.66,2.72,2.72,0,0,0,.54-1.41,18.87,18.87,0,0,0,.13-2.49v-5.19c0-1.64,0-2.95-.08-3.95a14.59,14.59,0,0,0-.21-2.07,3,3,0,0,0-.33-.87,1.21,1.21,0,0,0-.62-.54,2.73,2.73,0,0,0-1-.25,12.39,12.39,0,0,0-1.58-.08v-1.41l8-1.58.54,3.66h.16a9.71,9.71,0,0,1,3.24-2.7,8.9,8.9,0,0,1,4.11-1,10.3,10.3,0,0,1,4.28.75,7.3,7.3,0,0,1,2.95,2.41,9.47,9.47,0,0,1,1.25,2.49,12.69,12.69,0,0,1,.54,4.15V486c0,1.14,0,2,.08,2.7a3.89,3.89,0,0,0,.46,1.49,1.81,1.81,0,0,0,1.08.66,11.84,11.84,0,0,0,1.91.25v1.66h-13v-1.66a10.48,10.48,0,0,0,1.95-.21,2,2,0,0,0,1.12-.71,3,3,0,0,0,.5-1.41,20.25,20.25,0,0,0,.13-2.49v-5.65a21.4,21.4,0,0,0-.25-3.57,5.91,5.91,0,0,0-.83-2.32,3,3,0,0,0-1.45-1.29,5.52,5.52,0,0,0-2.29-.41,3.58,3.58,0,0,0-2.28.75,6.44,6.44,0,0,0-1.66,2.08,9.35,9.35,0,0,0-.66,1.95,11.85,11.85,0,0,0-.25,2.45Zm0,0" transform="translate(-211 -133.89)"/><path class="cls-2" d="M571.73,473.06v-1.87a10.9,10.9,0,0,0,4.16-2.12,9.35,9.35,0,0,0,2.53-3.33h2.12v5h4.78v2.29h-4.78v12.75a8.86,8.86,0,0,0,.54,3.66,2,2,0,0,0,1.91,1.08,2.65,2.65,0,0,0,2.45-1.49l.87,1.2q-1.17,2.95-5.48,2.95a6.86,6.86,0,0,1-4.48-1.33,4.61,4.61,0,0,1-1.58-3.74V473.06Zm0,0" transform="translate(-211 -133.89)"/><path class="cls-2" d="M599,486a22.63,22.63,0,0,0,.13,2.66,3.49,3.49,0,0,0,.5,1.54,1.91,1.91,0,0,0,1.08.75,10.3,10.3,0,0,0,1.91.21v1.66H589.54v-1.66a7.63,7.63,0,0,0,1.87-.25,2.2,2.2,0,0,0,1.12-.75,3,3,0,0,0,.54-1.45,14.58,14.58,0,0,0,.16-2.41v-5.11q0-2.41-.08-3.95a16.34,16.34,0,0,0-.21-2.16,1.75,1.75,0,0,0-1-1.37,6.91,6.91,0,0,0-2.62-.33v-1.41l9.64-1.58Zm-6.11-24.43a3.19,3.19,0,0,1,3.2-3.24,3.25,3.25,0,0,1,3.24,3.24,3.19,3.19,0,0,1-3.24,3.2,3.12,3.12,0,0,1-3.2-3.2Zm0,0" transform="translate(-211 -133.89)"/><path class="cls-2" d="M615.75,486c0,1.14,0,2,.08,2.7a3.75,3.75,0,0,0,.46,1.49,1.81,1.81,0,0,0,1.08.66,13.21,13.21,0,0,0,2,.25v1.66H606.27v-1.66a11.84,11.84,0,0,0,1.91-.25,1.82,1.82,0,0,0,1.12-.66,2.77,2.77,0,0,0,.54-1.41,19.62,19.62,0,0,0,.13-2.49v-5.19c0-1.64,0-2.95-.09-3.95a14.75,14.75,0,0,0-.21-2.07,2.81,2.81,0,0,0-.33-.87,1.21,1.21,0,0,0-.62-.54,2.75,2.75,0,0,0-1-.25,12.45,12.45,0,0,0-1.58-.08v-1.41l8-1.58.54,3.66h.17a9.7,9.7,0,0,1,3.24-2.7,8.91,8.91,0,0,1,4.11-1,10.27,10.27,0,0,1,4.28.75,7.27,7.27,0,0,1,2.95,2.41,9.36,9.36,0,0,1,1.25,2.49,12.64,12.64,0,0,1,.54,4.15V486c0,1.14,0,2,.08,2.7a3.77,3.77,0,0,0,.46,1.49,1.81,1.81,0,0,0,1.08.66,12,12,0,0,0,1.91.25v1.66h-13v-1.66a10.52,10.52,0,0,0,2-.21,2,2,0,0,0,1.12-.71,3,3,0,0,0,.5-1.41,20.37,20.37,0,0,0,.12-2.49v-5.65a21.89,21.89,0,0,0-.25-3.57,6,6,0,0,0-.83-2.32,3,3,0,0,0-1.45-1.29,5.53,5.53,0,0,0-2.29-.41,3.59,3.59,0,0,0-2.29.75,6.39,6.39,0,0,0-1.66,2.08,9.18,9.18,0,0,0-.66,1.95,11.59,11.59,0,0,0-.25,2.45Zm0,0" transform="translate(-211 -133.89)"/><path class="cls-2" d="M646.45,488.3l1.95.17c.58.05,1.12.13,1.62.21s1,.13,1.54.21,1.08.13,1.66.21a8.14,8.14,0,0,1,5.07,2.45,6.75,6.75,0,0,1,1.87,4.86,5.94,5.94,0,0,1-2.91,5.36q-2.91,1.82-8.55,1.82-5.19,0-8-1.54a4.66,4.66,0,0,1-2.78-4.28,4.45,4.45,0,0,1,1.12-3.28,3.91,3.91,0,0,1,2.82-1.08,5.4,5.4,0,0,1,2.08.42,4.8,4.8,0,0,1,1.75,1.29,3.23,3.23,0,0,0-1.79,1,2.75,2.75,0,0,0-.66,1.83,2.79,2.79,0,0,0,1.45,2.53,8.47,8.47,0,0,0,4.36.91q6.23,0,6.23-3.95a3.5,3.5,0,0,0-1-2.45,4.12,4.12,0,0,0-2.66-1.21l-7.27-1q-4.61-.62-4.61-4.11a3.77,3.77,0,0,1,1.08-2.78,6.21,6.21,0,0,1,3.16-1.5v-.17a6.1,6.1,0,0,1-1.74-1,8.05,8.05,0,0,1-1.33-1.54,6.63,6.63,0,0,1-1.2-4,6.67,6.67,0,0,1,.62-2.86,7.07,7.07,0,0,1,1.79-2.33,8.78,8.78,0,0,1,2.7-1.5,9.79,9.79,0,0,1,3.41-.58,11.36,11.36,0,0,1,3.49.54,9,9,0,0,1,2.91,1.49c.64-.39,1.19-.7,1.66-1a7.69,7.69,0,0,1,1.29-.62,5.56,5.56,0,0,1,1.13-.33,4.62,4.62,0,0,1,3.53.58,2.18,2.18,0,0,1,1,1.87,2,2,0,0,1-.54,1.45,1.91,1.91,0,0,1-1.41.54,1.75,1.75,0,0,1-1-.25c-.25-.19-.5-.4-.75-.62a3.63,3.63,0,0,0-.71-.62,1.58,1.58,0,0,0-1-.29,2.15,2.15,0,0,0-1.66,1.12,5,5,0,0,1,.58,1.54,9.36,9.36,0,0,1,.16,1.87,8.23,8.23,0,0,1-.5,2.91,6.37,6.37,0,0,1-1.58,2.37,8.8,8.8,0,0,1-2.7,1.7,14.12,14.12,0,0,1-4,1,11.1,11.1,0,0,0-2.78.54,1.07,1.07,0,0,0-.75,1q0,1,1.87,1.16Zm2-5.07a2.29,2.29,0,0,0,2.08-1.41,8.56,8.56,0,0,0,.75-3.95,8.41,8.41,0,0,0-.75-3.95,2.32,2.32,0,0,0-2.12-1.41,2.52,2.52,0,0,0-2.24,1.41,7.61,7.61,0,0,0-.83,3.86,8.21,8.21,0,0,0,.83,4,2.6,2.6,0,0,0,2.29,1.45Zm0,0" transform="translate(-211 -133.89)"/><path class="cls-2" d="M682.22,493.21a20.13,20.13,0,0,1-6.77-1.08A13.67,13.67,0,0,1,667.1,484a18.5,18.5,0,0,1-1.12-6.61,19,19,0,0,1,1.2-6.89,16,16,0,0,1,3.45-5.4,15,15,0,0,1,5.27-3.45,18,18,0,0,1,6.81-1.25,16.84,16.84,0,0,1,4.9.71,23.88,23.88,0,0,1,5,2.29l.79-2.57h1.5v10.51h-2.08a10.59,10.59,0,0,0-3.36-6.07,9.26,9.26,0,0,0-6.27-2.16,8.63,8.63,0,0,0-7.43,3.7q-2.62,3.66-2.62,10.26t2.57,9.93a8.76,8.76,0,0,0,7.48,3.45,7.83,7.83,0,0,0,5.48-1.79,6.48,6.48,0,0,0,2-5,3.52,3.52,0,0,0-1-2.79,5.69,5.69,0,0,0-3.36-1.12V478h13.46v1.66a3.59,3.59,0,0,0-2.82.91,4.85,4.85,0,0,0-.79,3.2v5.52a12.06,12.06,0,0,0-1.54.08,5,5,0,0,0-1.25.25,6.49,6.49,0,0,0-1.33.58c-.5.28-1.12.64-1.87,1.08a15.58,15.58,0,0,1-8,1.87Zm0,0" transform="translate(-211 -133.89)"/><path class="cls-2" d="M712.86,486a22.64,22.64,0,0,0,.12,2.66,3.49,3.49,0,0,0,.5,1.54,1.91,1.91,0,0,0,1.08.75,10.3,10.3,0,0,0,1.91.21v1.66H703.39v-1.66a7.64,7.64,0,0,0,1.87-.25,2.23,2.23,0,0,0,1.13-.75,3,3,0,0,0,.54-1.45,14.69,14.69,0,0,0,.16-2.41v-5.11q0-2.41-.08-3.95a16.52,16.52,0,0,0-.21-2.16,1.74,1.74,0,0,0-1-1.37,6.9,6.9,0,0,0-2.62-.33v-1.41l9.64-1.58Zm-6.11-24.43a3.19,3.19,0,0,1,3.2-3.24,3.26,3.26,0,0,1,3.24,3.24,3.19,3.19,0,0,1-3.24,3.2,3.12,3.12,0,0,1-3.2-3.2Zm0,0" transform="translate(-211 -133.89)"/><path class="cls-2" d="M719.63,470.78h4.48v-2.33a11,11,0,0,1,.75-4.11,9.56,9.56,0,0,1,2.16-3.19,9,9,0,0,1,3.28-2.08,11.94,11.94,0,0,1,4.32-.75,10.57,10.57,0,0,1,2.57.29,8,8,0,0,1,2.08.71,3.59,3.59,0,0,1,1.33,1.12,2.3,2.3,0,0,1,.5,1.41,2,2,0,0,1-.7,1.58,2.61,2.61,0,0,1-1.79.62,2,2,0,0,1-1.33-.5,23,23,0,0,1-1.66-1.82,3.07,3.07,0,0,0-1-.83,2.62,2.62,0,0,0-1.12-.25,2.92,2.92,0,0,0-2.62,2,13,13,0,0,0-1,5.52v2.58h7v2.29h-7v12.83a15.81,15.81,0,0,0,.17,2.58,3.45,3.45,0,0,0,.71,1.58,3,3,0,0,0,1.41.83,11.21,11.21,0,0,0,2.24.25v1.66h-14v-1.66a11.35,11.35,0,0,0,2-.21,2,2,0,0,0,1.12-.71,3.3,3.3,0,0,0,.5-1.45,19.87,19.87,0,0,0,.13-2.54V473.06h-4.48Zm0,0" transform="translate(-211 -133.89)"/><path class="cls-2" d="M740.11,473.06v-1.87a10.9,10.9,0,0,0,4.15-2.12,9.36,9.36,0,0,0,2.53-3.33h2.12v5h4.78v2.29h-4.78v12.75a8.86,8.86,0,0,0,.54,3.66,2,2,0,0,0,1.91,1.08,2.65,2.65,0,0,0,2.45-1.49l.87,1.2q-1.17,2.95-5.48,2.95a6.86,6.86,0,0,1-4.48-1.33,4.61,4.61,0,0,1-1.58-3.74V473.06Zm0,0" transform="translate(-211 -133.89)"/></svg>